<svg xmlns="http://www.w3.org/2000/svg" viewBox="0 0 256 256">
  <rect width="256" height="256" fill="#f5e6f0" rx="40"/>
  <path d="M70 80 Q68 78 70 76 L90 76 Q92 78 90 80 L90 180 Q92 182 90 184 L70 184 Q68 182 70 180 Z" fill="#d4a5c7"/>
  <path d="M90 76 Q92 78 90 80 L166 80 Q168 78 166 76 L90 76 Z" fill="#c9a8d4"/>
  <path d="M166 76 Q168 78 166 80 L166 180 Q168 182 166 184 L186 184 Q188 182 186 180 L186 80 Q188 78 186 76 Z" fill="#d4a5c7"/>
  <ellipse cx="128" cy="95" rx="15" ry="8" fill="#e8c5d9" opacity="0.6"/>
  <ellipse cx="85" cy="130" rx="8" ry="12" fill="#dbb5d0" opacity="0.5"/>
  <ellipse cx="170" cy="145" rx="9" ry="11" fill="#c9a8d4" opacity="0.5"/>
</svg>